<svg xmlns="http://www.w3.org/2000/svg" version="1.1" xmlns:xlink="http://www.w3.org/1999/xlink" xmlns:svgjs="http://svgjs.dev/svgjs" width="1000" height="628" viewBox="0 0 1000 628"><g transform="matrix(1,0,0,1,0.009821532246633069,0.2547205170984057)"><svg viewBox="0 0 393 247" data-background-color="#010c80" preserveAspectRatio="xMidYMid meet" height="628" width="1000" xmlns="http://www.w3.org/2000/svg" xmlns:xlink="http://www.w3.org/1999/xlink"><g id="tight-bounds" transform="matrix(1,0,0,1,-0.003794143429331598,-0.09997365579206985)"><svg viewBox="0 0 393.00765400560226 247.2" height="247.2" width="393.00765400560226"><g><svg viewBox="0 0 393.00765400560226 247.2" height="247.2" width="393.00765400560226"><g><svg viewBox="0 0 393.00765400560226 247.2" height="247.2" width="393.00765400560226"><g id="textblocktransform"><svg viewBox="0 0 393.00765400560226 247.2" height="247.2" width="393.00765400560226" id="textblock"><g><svg viewBox="0 0 393.00765400560226 247.2" height="247.2" width="393.00765400560226"><path d="M392.088 53.02C390.24 27.36 384.974 20.227 384.974 20.227 368.808-6.202 348.632-0.506 330.507 3.292 298.506 3.446 266.635 9.091 234.708 12.119 167.695 12.581 100.109 4.986 33.429 23.717 27.165 29.464-6.498 24.846 1.114 56.304 3.11 69.39 10.389 83.913 10.167 95.922 11.165 98.026 12.551 93.202 13.142 96.23 15.211 104.39 18.593 100.541 21.364 105.365 17.502 118.246 20.274 128.971 22.916 140.21 18.26 143.135 12.292 141.749 9.613 151.449 9.336 158.479 7.839 157.145 6.195 156.837 4.994 156.632 2.574 157.402 2.98 159.608 4.366 167.152-1.583 171.514 2.149 178.904-0.419 186.91 3.922 193.838 3.331 202.511 3.257 204.255 3.664 205.744 4.31 206.154 7.174 208.361 2.999 212.672 3.442 217.342 32.819 249.262 64.69 227.195 94.788 241.872 102.603 231.608 96.728 245.516 99.851 243.36 102.289 240.846 104.063 251.263 106.816 245.362 107.241 243.668 106.594 239.665 108.109 240.435 108.904 240.846 109.606 240.743 109.717 238.382 109.883 234.841 108.423 237.048 108.035 235.201 112.23 225.861 111.195 248.081 115.13 247.158 114.946 244.438 113.8 240.538 116.147 241.051 118.474 237.151 118.548 233.918 120.618 242.693 120.692 244.592 121.061 245.926 121.652 246.85 128.119 237.305 134.549 250.237 141.329 245.926 145.487 241.205 149.477 248.492 153.69 246.696 155.168 245.259 156.665 242.693 158.087 247.004 175.51 247.928 194.079 244.079 210.596 247.158 254.736 241.41 301.906 249.518 348.447 241.923 359.422 238.998 370.822 234.841 381.519 231.506 381.519 231.506 390.184 222.371 390.184 181.316S392.032 145.393 392.309 112.703C392.586 80.013 393.88 78.679 392.032 53.02Z" opacity="1" fill="#77d4fc" data-fill-palette-color="tertiary"></path><g transform="matrix(1,0,0,1,55.76832,26.230666666666668)"><svg width="281.4710140056022" viewBox="1.75 -33 60.20000076293945 41.650001525878906" height="194.73866666666666" data-palette-color="#010c80"><path d="M3.3 8.65L3.3 8.65Q1.75 8.65 1.75 7.2L1.75 7.2Q1.75 6.5 1.98 5.3 2.2 4.1 2.5 2.8L2.5 2.8 3 2.8Q3.65 3 4.03 3.08 4.4 3.15 4.9 3.15L4.9 3.15Q5.7 3.15 6.28 2.78 6.85 2.4 7.18 1.2 7.5 0 7.5-2.45L7.5-2.45 7.5-30.1 3.05-32.2 3.05-33 21.45-33 21.45-32.2 17-30.1 17-12.45Q17-9.5 16.25-6.93 15.5-4.35 14.35-2.23 13.2-0.1 12 1.5 10.8 3.1 9.95 4.15L9.95 4.15Q8.45 5.9 6.73 7.28 5 8.65 3.3 8.65ZM42.15 0L24.45 0 24.45-0.8 28.9-2.9 28.9-30.1 24.45-32.2 24.45-33 44.3-33Q49.55-33 52.57-30.83 55.6-28.65 55.6-24.85L55.6-24.85Q55.6-22.1 53.8-20.28 52-18.45 49-17.3L49-17.3 58.15-2.95 61.95-0.8 61.95 0 48.75 0 39.8-15.4 38.4-15.4 38.4-2.95 42.15-0.8 42.15 0ZM39.6-30.25L39.6-30.25 38.4-30.25 38.4-17.65 39.9-17.65Q42.9-17.65 44.57-19.38 46.25-21.1 46.25-23.95L46.25-23.95Q46.25-27 44.6-28.63 42.95-30.25 39.6-30.25Z" opacity="1" transform="matrix(1,0,0,1,0,0)" fill="#010c80" class="wordmark-text-0" data-fill-palette-color="quaternary" id="text-0"></path></svg></g></svg></g></svg></g></svg></g><g></g></svg></g><defs></defs></svg><rect width="393.00765400560226" height="247.2" fill="none" stroke="none" visibility="hidden"></rect></g></svg></g></svg>